<svg width="68" height="68" viewBox="0 0 68 68" fill="none" xmlns="http://www.w3.org/2000/svg">
<path d="M21.5417 33.624V43.416H23.6057C24.1817 42.048 25.4537 41.136 27.2057 41.136C29.7257 41.136 30.9977 42.576 30.9977 45.048C30.9977 47.424 29.8217 49.2 27.1817 49.2C25.1417 49.2 23.7257 48.12 23.3177 46.296H21.1817C21.6137 49.104 23.7017 51.048 27.1577 51.048C31.2137 51.048 33.0857 48.36 33.0857 45C33.0857 42.312 31.7417 39.264 27.5177 39.264C25.8137 39.264 24.2777 40.032 23.5577 41.016V35.544H31.9817V33.624H21.5417ZM35.988 42.144C35.988 47.184 37.236 51 42.036 51C46.812 51 48.06 47.184 48.06 42.144C48.06 37.176 46.812 33.384 42.036 33.384C37.236 33.384 35.988 37.176 35.988 42.144ZM45.9 42.144C45.9 45.888 45.444 49.008 42.036 49.008C38.604 49.008 38.148 45.888 38.148 42.144C38.148 38.544 38.604 35.376 42.036 35.376C45.444 35.376 45.9 38.544 45.9 42.144Z" fill="#4B2A63"/>
</svg>
