<svg width="62" height="62" viewBox="0 0 62 62" fill="none" xmlns="http://www.w3.org/2000/svg">
<g clip-path="url(#clip0_1_32)">
<path d="M40.8067 61.9867L41.2067 61.6867L47.5333 56.9417L53.86 61.6867L54.26 61.9867L54.66 62.2867L54.6895 62.2473C54.9648 62.3794 55.2627 62.462 55.5695 62.4896C56.0442 62.5324 56.5215 62.4422 56.9478 62.229C57.3742 62.0159 57.7327 61.6882 57.9833 61.2827C58.1453 61.0207 58.258 60.7328 58.3175 60.4333H58.3667V59.9333V59.4333V45.46C60.9018 42.8006 62.3691 39.3021 62.4917 35.6333H62.5V35.1333V34.6333H62.4917C62.3652 30.8454 60.8051 27.239 58.1164 24.5503C55.4276 21.8616 51.8212 20.3015 48.0333 20.175V20.1667H47.5333H47.0333V20.175C43.2454 20.3015 39.639 21.8616 36.9503 24.5503C34.2616 27.239 32.7015 30.8454 32.575 34.6333H32.5667V35.1333V35.6333H32.575C32.6975 39.3021 34.1649 42.8006 36.7 45.46V59.4333V59.9333V60.4333H36.7492C36.8087 60.7328 36.9214 61.0207 37.0833 61.2827C37.3339 61.6882 37.6925 62.0159 38.1188 62.229C38.5452 62.4422 39.0224 62.5324 39.4972 62.4896C39.804 62.462 40.1019 62.3794 40.3772 62.2473L40.4067 62.2867L40.8067 61.9867ZM41.8333 54.8V48.9721C43.4729 49.6474 45.2326 50.0315 47.0333 50.0917V50.1H47.5333H48.0333V50.0917C49.834 50.0315 51.5937 49.6474 53.2333 48.9721V54.8L49.4733 51.98L49.0733 51.68L48.6733 51.38L48.6438 51.4193C48.2992 51.2539 47.9199 51.1667 47.5333 51.1667C47.1468 51.1667 46.7675 51.2539 46.4228 51.4193L46.3933 51.38L45.9933 51.68L45.5933 51.98L41.8333 54.8ZM47.5333 25.3C50.1413 25.3 52.6424 26.336 54.4865 28.1801C56.3307 30.0242 57.3667 32.5254 57.3667 35.1333C57.3667 37.7413 56.3307 40.2424 54.4865 42.0866C54.1949 42.3782 53.8868 42.6497 53.5644 42.9H53.2333V43.1462C51.5795 44.3226 49.5896 44.9667 47.5333 44.9667C45.477 44.9667 43.4871 44.3226 41.8333 43.1462V42.9H41.5022C41.1799 42.6497 40.8718 42.3782 40.5801 42.0866C38.736 40.2424 37.7 37.7413 37.7 35.1333C37.7 32.5254 38.736 30.0242 40.5801 28.1801C42.4242 26.336 44.9254 25.3 47.5333 25.3ZM62 21.1667H62.5V20.6667V6.7V6.2V5.7H62.4813C62.3621 4.1059 61.6757 2.6005 60.5376 1.46238C59.3995 0.324273 57.8941 -0.3621 56.3 -0.481332V-0.5H55.8H55.3H6.7H6.2H5.7V-0.481332C4.1059 -0.3621 2.6005 0.324273 1.46238 1.46238C0.324273 2.6005 -0.3621 4.1059 -0.481332 5.7H-0.5V6.2V6.7V55.3V55.8V56.3H-0.481332C-0.3621 57.8941 0.324272 59.3995 1.46238 60.5376C2.6005 61.6757 4.1059 62.3621 5.7 62.4813V62.5H6.2H6.7H33.0667H33.5667V62V57.8667V57.3667H33.0667H6.7H6.2C5.78449 57.3667 5.38601 57.2016 5.0922 56.9078C4.79839 56.614 4.63333 56.2155 4.63333 55.8V55.3V6.7V6.2C4.63333 5.78449 4.79839 5.38601 5.0922 5.0922C5.38601 4.79839 5.78449 4.63333 6.2 4.63333H6.7H55.3H55.8C56.2155 4.63333 56.614 4.79839 56.9078 5.0922C57.2016 5.38601 57.3667 5.78449 57.3667 6.2V6.7V20.6667V21.1667H57.8667H62ZM11.9 20.6667V21.1667H12.4H33.0667H33.5667V20.6667V16.5333V16.0333H33.0667H12.4H11.9V16.5333V20.6667ZM11.9 33.0667V33.5667H12.4H24.8H25.3V33.0667V28.9333V28.4333H24.8H12.4H11.9V28.9333V33.0667Z" fill="#4B2A63" stroke="#4B2A63"/>
</g>
<defs>
<clipPath id="clip0_1_32">
<rect width="62" height="62" fill="white"/>
</clipPath>
</defs>
</svg>
